<svg xmlns="http://www.w3.org/2000/svg" width="70" height="56" fill="none" xmlns:v="https://vecta.io/nano"><g clip-path="url(#A)"><rect x="17.5" y="4.2" width="34.3" height="16.8" rx="1.05" fill="#58707f"/><path d="M41.045 10.949l-2.963-2.963L36.6 7.7c0 .908-.765 1.672-1.721 1.672s-1.721-.765-1.721-1.672l-1.482.287-3.059 2.963 2.055 2.055 1.004-1.003v6.021h6.404v-5.973l.956.956 2.007-2.055z" fill="#fff"/><rect x="17.5" y="23.1" width="16.1" height="10.5" rx=".539" fill="#58707f"/><use href="#B" fill="#fff"/><rect x="35.7" y="23.1" width="16.1" height="10.5" rx=".539" fill="#58707f"/><path d="M47.077 27.194l-1.678-1.818-.839-.176c0 .557-.433 1.026-.974 1.026s-.974-.469-.974-1.026l-.839.176-1.732 1.818 1.164 1.261.568-.616v3.694h3.627v-3.665l.541.586 1.137-1.261z" fill="#fff"/><rect x="17.5" y="35.7" width="16.1" height="10.5" rx=".539" fill="#58707f"/><use href="#C" fill="#fff"/><rect x="35.7" y="35.7" width="16.1" height="10.5" rx=".539" fill="#58707f"/><path d="M47.077 39.794l-1.678-1.818-.839-.176c0 .557-.433 1.026-.974 1.026s-.974-.469-.974-1.026l-.839.176-1.732 1.818 1.164 1.261.568-.616v3.694h3.627v-3.665l.541.587 1.137-1.261z" fill="#fff"/><rect x="17.5" y="48.3" width="34.3" height="16.8" rx="1.05" fill="#58707f"/><path d="M41.045 55.049l-2.963-2.963L36.6 51.8c0 .908-.765 1.672-1.721 1.672s-1.721-.765-1.721-1.672l-1.482.287-3.059 2.963 2.055 2.055 1.004-1.003v6.021h6.404v-5.973l.956.956 2.007-2.055z" fill="#fff"/></g><defs><clipPath id="A"><path fill="#fff" transform="translate(17.5 4.2)" d="M0 0h34.3v47.6H0z"/></clipPath><path id="B" d="M29.087 27.194l-1.678-1.818-.839-.176c0 .557-.433 1.026-.974 1.026s-.974-.469-.974-1.026l-.839.176-1.732 1.818 1.164 1.261.568-.616v3.694h3.627v-3.665l.541.586 1.137-1.261z"/><path id="C" d="M29.087 39.794l-1.678-1.818-.839-.176c0 .557-.433 1.026-.974 1.026s-.974-.469-.974-1.026l-.839.176-1.732 1.818 1.164 1.261.568-.616v3.694h3.627v-3.665l.541.587 1.137-1.261z"/></defs></svg>