<svg xmlns="http://www.w3.org/2000/svg" width="70" height="56" fill="none" xmlns:v="https://vecta.io/nano"><g clip-path="url(#A)"><rect x="17.5" y="4.2" width="34.3" height="16.8" rx="1.05" fill="#58707f"/><path d="M41.045 10.949l-2.963-2.963L36.6 7.7c0 .908-.765 1.672-1.721 1.672s-1.721-.765-1.721-1.672l-1.482.287-3.059 2.963 2.055 2.055 1.004-1.003v6.021h6.404v-5.973l.956.956 2.007-2.055z" fill="#fff"/><rect x="17.5" y="23.1" width="9.997" height="7" rx=".539" fill="#58707f"/><use href="#B" fill="#fff"/><rect x="29.652" y="23.1" width="9.997" height="7" rx=".539" fill="#58707f"/><use href="#C" fill="#fff"/><rect x="41.803" y="23.1" width="9.997" height="7" rx=".539" fill="#58707f"/><path d="M49.147 25.762l-1.084-1.174-.542-.114c0 .36-.28.663-.629.663s-.629-.303-.629-.663l-.542.114-1.119 1.174.752.814.367-.398v2.386h2.342v-2.367l.349.379.734-.814z" fill="#fff"/><rect x="17.5" y="32.2" width="9.997" height="7" rx=".539" fill="#58707f"/><path d="M24.844 34.862l-1.084-1.174-.542-.114c0 .36-.28.663-.629.663s-.629-.303-.629-.663l-.542.114-1.119 1.174.752.814.367-.398v2.386h2.342v-2.367l.349.379.734-.814z" fill="#fff"/><rect x="29.652" y="32.2" width="9.997" height="7" rx=".539" fill="#58707f"/><path d="M36.996 34.862l-1.084-1.174-.542-.114c0 .36-.28.663-.629.663s-.629-.303-.629-.663l-.542.114-1.119 1.174.752.814.367-.398v2.386h2.342v-2.367l.35.379.734-.814z" fill="#fff"/><rect x="41.803" y="32.2" width="9.997" height="7" rx=".539" fill="#58707f"/><path d="M49.147 34.862l-1.084-1.174-.542-.114c0 .36-.28.663-.629.663s-.629-.303-.629-.663l-.542.114-1.119 1.174.752.814.367-.398v2.386h2.342v-2.367l.349.379.734-.814z" fill="#fff"/><rect x="17.5" y="41.3" width="34.3" height="16.8" rx="1.05" fill="#58707f"/><path d="M41.045 48.049l-2.963-2.963L36.6 44.8c0 .908-.765 1.672-1.721 1.672s-1.721-.765-1.721-1.672l-1.482.287-3.059 2.963 2.055 2.055 1.004-1.003v6.021h6.404v-5.973l.956.956 2.007-2.055z" fill="#fff"/></g><defs><clipPath id="A"><path fill="#fff" transform="translate(17.5 4.2)" d="M0 0h34.3v47.6H0z"/></clipPath><path id="B" d="M24.844 25.762l-1.084-1.174-.542-.114c0 .36-.28.663-.629.663s-.629-.303-.629-.663l-.542.114-1.119 1.174.752.814.367-.398v2.386h2.342v-2.367l.349.379.734-.814z"/><path id="C" d="M36.996 25.762l-1.084-1.174-.542-.114c0 .36-.28.663-.629.663s-.629-.303-.629-.663l-.542.114-1.119 1.174.752.814.367-.398v2.386h2.342v-2.367l.35.379.734-.814z"/></defs></svg>