<svg xmlns="http://www.w3.org/2000/svg" width="100" height="80" fill="none" xmlns:v="https://vecta.io/nano"><style><![CDATA[.B{fill:#58707f}.C{fill:#fff}]]></style><rect x="22" y="6" width="57" height="40" rx="1.898" class="B"/><path d="M62.462 22.873l-5.356-5.355L54.427 17c0 1.641-1.382 3.023-3.11 3.023s-3.11-1.382-3.11-3.023l-2.678.518L40 22.873l3.715 3.714 1.814-1.814v10.883h11.577V24.86l1.728 1.727 3.629-3.714z" class="C"/><rect x="22" y="48.806" width="12" height="11.388" rx=".675" class="B"/><path d="M30.694 53.613l-1.358-1.471-.679-.142c0 .451-.35.83-.788.83s-.788-.38-.788-.83l-.679.142L25 53.613l.942 1.02.46-.498v2.989h2.935v-2.966l.438.474.92-1.02z" class="C"/><rect x="37" y="48.806" width="12" height="11.388" rx=".675" class="B"/><path d="M46 53.613l-1.431-1.471-.715-.142c0 .451-.369.83-.831.83s-.831-.38-.831-.83l-.715.142L40 53.613l.992 1.02.485-.498v2.989h3.092v-2.966l.462.474.969-1.02z" class="C"/><rect x="52" y="48.806" width="12" height="11.388" rx=".675" class="B"/><path d="M61 53.613l-1.431-1.471-.715-.142c0 .451-.369.83-.831.83s-.831-.38-.831-.83l-.715.142L55 53.613l.992 1.02.485-.498v2.989h3.092v-2.966l.462.474.969-1.02z" class="C"/><rect x="67" y="48.806" width="12" height="11.388" rx=".675" class="B"/><path d="M76 53.613l-1.431-1.471-.715-.142c0 .451-.369.83-.831.83s-.831-.38-.831-.83l-.715.142L70 53.613l.992 1.02.485-.498v2.989h3.092v-2.966l.462.474.969-1.02z" class="C"/><rect x="22" y="62.806" width="12" height="11.388" rx=".675" class="B"/><path d="M30.694 67.613l-1.358-1.471-.679-.142c0 .451-.35.83-.788.83s-.788-.38-.788-.83l-.679.142L25 67.613l.942 1.02.46-.498v2.989h2.935v-2.966l.438.474.92-1.02z" class="C"/><rect x="37" y="62.806" width="12" height="11.388" rx=".675" class="B"/><path d="M46 67.613l-1.431-1.471-.715-.142c0 .451-.369.83-.831.83s-.831-.38-.831-.83l-.715.142L40 67.613l.992 1.02.485-.498v2.989h3.092v-2.966l.462.474.969-1.02z" class="C"/><rect x="52" y="62.806" width="12" height="11.388" rx=".675" class="B"/><path d="M61 67.613l-1.431-1.471-.715-.142c0 .451-.369.83-.831.83s-.831-.38-.831-.83l-.715.142L55 67.613l.992 1.02.485-.498v2.989h3.092v-2.966l.462.474.969-1.02z" class="C"/><rect x="67" y="62.806" width="12" height="11.388" rx=".675" class="B"/><path d="M76 67.613l-1.431-1.471-.715-.142c0 .451-.369.83-.831.83s-.831-.38-.831-.83l-.715.142L70 67.613l.992 1.02.485-.498v2.989h3.092v-2.966l.462.474.969-1.02z" class="C"/></svg>