<svg xmlns="http://www.w3.org/2000/svg" width="100" height="80" fill="none" xmlns:v="https://vecta.io/nano"><g clip-path="url(#A)"><rect x="25" y="6" width="14.281" height="10" rx=".77" fill="#58707f"/><path d="M35.492 9.803l-1.548-1.677-.774-.162c0 .514-.399.947-.899.947s-.899-.433-.899-.947l-.774.162L29 9.803l1.074 1.163.524-.568v3.408h3.346v-3.381l.499.541 1.049-1.163z" fill="#fff"/><rect x="42.359" y="6" width="14.281" height="10" rx=".77" fill="#58707f"/><path d="M52.851 9.803l-1.548-1.677-.774-.162c0 .514-.399.947-.899.947s-.899-.433-.899-.947l-.774.162-1.598 1.677 1.074 1.163.524-.568v3.408h3.346v-3.381l.499.541 1.049-1.163z" fill="#fff"/><rect x="59.719" y="6" width="14.281" height="10" rx=".77" fill="#58707f"/><path d="M70.21 9.803l-1.548-1.677-.774-.162c0 .514-.4.947-.899.947s-.899-.433-.899-.947l-.774.162-1.598 1.677 1.073 1.163.524-.568v3.408h3.346v-3.381l.499.541 1.049-1.163z" fill="#fff"/><rect x="25" y="19" width="49" height="24" rx="1.5" fill="#58707f"/><path d="M58.636 28.642l-4.233-4.232-2.117-.41c0 1.297-1.093 2.389-2.458 2.389S47.37 25.297 47.37 24l-2.117.41-4.37 4.232 2.936 2.935 1.434-1.434v8.601h9.149v-8.533l1.365 1.365 2.868-2.935z" fill="#fff"/><rect x="25" y="46" width="23" height="15" rx=".77" fill="#58707f"/><path d="M41.553 51.848l-2.397-2.597L37.957 49c0 .796-.619 1.466-1.392 1.466s-1.392-.67-1.392-1.466l-1.199.251-2.475 2.597 1.663 1.801.812-.88v5.278h5.181v-5.236l.773.838 1.624-1.801z" fill="#fff"/><rect x="51" y="46" width="23" height="15" rx=".77" fill="#58707f"/><path d="M67.253 51.848l-2.397-2.597L63.657 49c0 .796-.619 1.466-1.392 1.466s-1.392-.67-1.392-1.466l-1.199.251-2.474 2.597 1.663 1.801.812-.88v5.278h5.181v-5.236l.773.838 1.624-1.801z" fill="#fff"/><rect x="25" y="64" width="49" height="24" rx="1.5" fill="#58707f"/><path d="M58.636 73.642l-4.233-4.232-2.117-.41c0 1.297-1.093 2.389-2.458 2.389S47.37 70.297 47.37 69l-2.117.41-4.37 4.232 2.936 2.935 1.434-1.433v8.601h9.149v-8.533l1.365 1.365 2.868-2.935z" fill="#fff"/></g><defs><clipPath id="A"><path fill="#fff" transform="translate(25 6)" d="M0 0h49v68H0z"/></clipPath></defs></svg>