<svg xmlns="http://www.w3.org/2000/svg" width="100" height="80" fill="none" xmlns:v="https://vecta.io/nano"><path d="M34 24H22a.94.94 0 0 1-1-1V11a.94.94 0 0 1 1-1h12a.94.94 0 0 1 1 1v12a.94.94 0 0 1-1 1z" fill="#58707f"/><use href="#B" fill="#fff"/><path d="M34 40H22a.94.94 0 0 1-1-1V27a.94.94 0 0 1 1-1h12a.94.94 0 0 1 1 1v12a.94.94 0 0 1-1 1z" fill="#58707f"/><use href="#B" y="16" fill="#fff"/><path d="M34 56H22a.94.94 0 0 1-1-1V43a.94.94 0 0 1 1-1h12a.94.94 0 0 1 1 1v12a.94.94 0 0 1-1 1z" fill="#58707f"/><use href="#B" y="32" fill="#fff"/><rect x="40" y="10" width="38" height="22.233" rx="1.45" fill="#58707f"/><path d="M65.526 18.519L62.3 15.25l-1.613-.316c0 1.002-.832 1.846-1.873 1.846s-1.873-.844-1.873-1.846l-1.613.316L52 18.519l2.237 2.267 1.093-1.107v6.644H62.3v-6.591l1.041 1.055 2.185-2.267z" fill="#fff"/><rect x="40" y="36.233" width="38" height="22.233" rx="1.45" fill="#58707f"/><path d="M65.526 44.819L62.3 41.55l-1.613-.316c0 1.002-.832 1.846-1.873 1.846s-1.873-.844-1.873-1.846l-1.613.316L52 44.819l2.237 2.267 1.093-1.107v6.644H62.3v-6.591l1.041 1.055 2.185-2.267z" fill="#fff"/><path d="M40 63.917a1.45 1.45 0 0 1 1.45-1.45h35.1a1.45 1.45 0 0 1 1.45 1.45v5.417H40v-5.417z" fill="#58707f"/><defs ><path id="B" d="M33 15.5l-2.4-2.4-1.2-.2c0 .7-.6 1.3-1.4 1.3s-1.4-.6-1.4-1.3l-1.2.2-2.4 2.4 1.6 1.6.8-.8v4.8h5.2v-4.8l.8.8 1.6-1.6z"/></defs></svg>