<!--
<svg width="33" height="33" viewBox="0 0 33 33" fill="none" xmlns="http://www.w3.org/2000/svg">
<g clip-path="url(#clip0_1994_1721)">
<path d="M0 3.2V36.8C0 38.6 1.4 40 3.2 40H36.8C38.6 40 40 38.6 40 36.8V3.2C40 1.4 38.6 0 36.8 0H3.2C1.4 0 0 1.4 0 3.2ZM35.6 37.2H4.4C3.5 37.2 2.8 36.5 2.8 35.6V4.4C2.8 3.5 3.5 2.8 4.4 2.8H35.6C36.5 2.8 37.2 3.5 37.2 4.4V35.6C37.2 36.5 36.5 37.2 35.6 37.2Z" fill="white"/>
<path d="M13.0996 28.9001V33.6001C13.0996 34.0001 12.6996 34.4001 12.2996 34.4001H6.39961C5.99961 34.4001 5.59961 34.0001 5.59961 33.6001V28.9001C5.59961 28.5001 5.99961 28.1001 6.39961 28.1001H12.2996C12.6996 28.1001 13.0996 28.5001 13.0996 28.9001Z" fill="white"/>
<path d="M24.1004 28.9001V33.6001C24.1004 34.0001 23.7004 34.4001 23.3004 34.4001H16.7004C16.3004 34.4001 15.9004 34.0001 15.9004 33.6001V28.9001C15.9004 28.5001 16.3004 28.1001 16.7004 28.1001H23.3004C23.7004 28.1001 24.1004 28.5001 24.1004 28.9001Z" fill="white"/>
<path d="M34.4004 28.9001V33.6001C34.4004 34.0001 34.0004 34.4001 33.6004 34.4001H27.7004C27.3004 34.4001 26.9004 34.0001 26.9004 33.6001V28.9001C26.9004 28.5001 27.3004 28.1001 27.7004 28.1001H33.6004C34.0004 28.1001 34.4004 28.5001 34.4004 28.9001Z" fill="white"/>
<path d="M5.59961 6.4001V24.5001C5.59961 24.9001 5.99961 25.3001 6.39961 25.3001H33.5996C33.9996 25.3001 34.3996 24.9001 34.3996 24.5001V6.4001C34.3996 6.0001 33.9996 5.6001 33.5996 5.6001H6.39961C5.99961 5.6001 5.59961 6.0001 5.59961 6.4001ZM8.99961 21.3001L15.2996 9.7001C15.5996 9.1001 16.3996 9.1001 16.6996 9.7001L21.1996 17.9001C21.4996 18.5001 22.2996 18.5001 22.5996 17.9001L23.1996 16.7001C23.4996 16.1001 24.2996 16.1001 24.5996 16.7001L27.0996 21.3001C27.3996 21.8001 26.9996 22.5001 26.3996 22.5001H9.79961C9.09961 22.5001 8.79961 21.9001 8.99961 21.3001ZM28.0996 15.6001C26.0996 15.6001 24.3996 14.0001 24.3996 11.9001C24.3996 10.0001 25.9996 8.4001 27.8996 8.4001C29.8996 8.4001 31.5996 10.0001 31.5996 12.1001C31.5996 14.0001 29.9996 15.6001 28.0996 15.6001Z" fill="white"/>
</g>
<defs>
<clipPath id="clip0_1994_1721">
<rect width="33" height="33" fill="white"/>
</clipPath>
</defs>
</svg> -->
<svg viewBox="0 0 33 33" fill="none" xmlns="http://www.w3.org/2000/svg" width="33" height="33" >
<g clip-path="url(#clip0_710_61)">
<path d="M0 2.6V30.3C0 31.8 1.2 33 2.6 33H30.3C31.8 33 32.9 31.8 32.9 30.4V2.6C33 1.2 31.8 0 30.4 0H2.6C1.2 0 0 1.2 0 2.6ZM29.4 30.7H3.6C2.9 30.7 2.3 30.1 2.3 29.4V3.6C2.3 2.9 2.9 2.3 3.6 2.3H29.3C30 2.3 30.6 2.9 30.6 3.6V29.3C30.7 30.1 30.1 30.7 29.4 30.7Z" fill="url(#paint0_linear_710_61)"/>
<path d="M10.8001 23.8V27.7C10.8001 28 10.5001 28.4 10.1001 28.4H5.3001C5.0001 28.4 4.6001 28.1 4.6001 27.7V23.8C4.6001 23.5 4.9001 23.1 5.3001 23.1H10.2001C10.5001 23.2 10.8001 23.5 10.8001 23.8Z" fill="url(#paint1_linear_710_61)"/>
<path d="M19.9001 23.8V27.7C19.9001 28 19.6001 28.4 19.2001 28.4H13.8001C13.5001 28.4 13.1001 28.1 13.1001 27.7V23.8C13.1001 23.5 13.4001 23.1 13.8001 23.1H19.2001C19.6001 23.2 19.9001 23.5 19.9001 23.8Z" fill="url(#paint2_linear_710_61)"/>
<path d="M28.4001 23.8V27.7C28.4001 28 28.1001 28.4 27.7001 28.4H22.8001C22.5001 28.4 22.1001 28.1 22.1001 27.7V23.8C22.1001 23.5 22.4001 23.1 22.8001 23.1H27.7001C28.0001 23.2 28.4001 23.5 28.4001 23.8Z" fill="url(#paint3_linear_710_61)"/>
<path d="M4.6001 5.30001V20.2C4.6001 20.5 4.9001 20.9 5.3001 20.9H27.7001C28.0001 20.9 28.4001 20.6 28.4001 20.2V5.30001C28.4001 5.00001 28.1001 4.60001 27.7001 4.60001H5.3001C4.9001 4.60001 4.6001 4.90001 4.6001 5.30001ZM7.4001 17.6L12.6001 8.00001C12.8001 7.50001 13.5001 7.50001 13.8001 8.00001L17.5001 14.8C17.7001 15.3 18.4001 15.3 18.7001 14.8L19.2001 13.8C19.4001 13.3 20.1001 13.3 20.4001 13.8L22.5001 17.6C22.7001 18 22.4001 18.6 21.9001 18.6H8.1001C7.5001 18.6 7.3001 18.1 7.4001 17.6ZM23.2001 12.9C21.6001 12.9 20.1001 11.6 20.1001 9.80001C20.1001 8.20001 21.4001 6.90001 23.0001 6.90001C24.6001 6.90001 26.1001 8.20001 26.1001 10C26.1001 11.6 24.8001 12.9 23.2001 12.9Z" fill="url(#paint4_linear_710_61)"/>
</g>
<defs>
<linearGradient id="paint0_linear_710_61" x1="0.429" y1="16.5" x2="32.3595" y2="16.5" gradientUnits="userSpaceOnUse">
<stop stop-color="white"/>
<stop offset="1" stop-color="white"/>
</linearGradient>
<linearGradient id="paint1_linear_710_61" x1="0.429097" y1="25.7812" x2="32.3596" y2="25.7812" gradientUnits="userSpaceOnUse">
<stop stop-color="white"/>
<stop offset="1" stop-color="white"/>
</linearGradient>
<linearGradient id="paint2_linear_710_61" x1="0.429099" y1="25.7812" x2="32.3596" y2="25.7812" gradientUnits="userSpaceOnUse">
<stop stop-color="white"/>
<stop offset="1" stop-color="white"/>
</linearGradient>
<linearGradient id="paint3_linear_710_61" x1="0.429101" y1="25.7812" x2="32.3596" y2="25.7812" gradientUnits="userSpaceOnUse">
<stop stop-color="white"/>
<stop offset="1" stop-color="white"/>
</linearGradient>
<linearGradient id="paint4_linear_710_61" x1="0.429098" y1="12.7462" x2="32.3596" y2="12.7462" gradientUnits="userSpaceOnUse">
<stop stop-color="white"/>
<stop offset="1" stop-color="white"/>
</linearGradient>
<clipPath id="clip0_710_61">
<rect width="33" height="33" fill="white"/>
</clipPath>
</defs>
</svg>
