<svg width="240" height="208" viewBox="0 0 240 208" fill="none" xmlns="http://www.w3.org/2000/svg">
<g clip-path="url(#clip0_2720_12034)">
<path d="M240 0H0V207.84H240V0Z" fill="#F4F4F4"/>
<path d="M62.112 172.992H37.056C35.904 172.992 35.04 172.128 35.04 170.976V145.824C35.04 144.672 35.904 143.808 37.056 143.808H62.208C63.36 143.808 64.224 144.672 64.224 145.824V170.88C64.224 172.032 63.456 172.992 62.112 172.992Z" fill="#8796A1"/>
<path d="M61.248 154.752L55.68 149.184L52.896 148.8C52.896 150.432 51.552 151.872 49.632 151.872C47.712 151.872 46.368 150.528 46.368 148.8L43.584 149.184L38.016 154.752L41.76 158.496L43.584 156.672V167.808H55.68V156.672L57.504 158.496L61.248 154.752Z" fill="white"/>
<path d="M53.952 153.6H45.504V163.872H53.952V153.6Z" fill="#FFD2FD"/>
<path d="M47.712 153.6H45.504V163.872H47.712V153.6Z" fill="#D7E2FF"/>
<path d="M53.952 153.6H51.744V163.872H53.952V153.6Z" fill="#FFEBD7"/>
<path d="M98.592 172.992H73.536C72.384 172.992 71.52 172.128 71.52 170.976V145.728C71.52 144.576 72.384 143.712 73.536 143.712H98.784C99.936 143.712 100.8 144.576 100.8 145.728V170.88C100.8 172.032 99.936 172.992 98.592 172.992Z" fill="#8796A1"/>
<path d="M78.24 165.504C81.984 166.464 85.536 166.272 90.336 165.12C91.2338 164.817 92.1015 164.431 92.928 163.968C92.544 163.968 92.16 163.968 91.776 164.064C83.232 163.872 81.12 162.816 80.544 162.144C80.448 162.048 80.448 161.952 80.352 161.856C78.24 162.24 75.264 163.008 75.072 163.68C75.072 163.968 76.128 165.024 78.24 165.504Z" fill="#D7E2FF"/>
<path d="M91.488 163.584V158.592C91.488 158.592 91.584 155.328 89.664 153.024H89.376C88.32 153.024 87.552 152.64 87.456 152.16C85.248 152.448 81.216 153.504 80.832 158.592L80.64 161.472C80.64 161.568 80.736 161.664 80.832 161.76C81.312 162.24 83.136 163.488 91.488 163.584Z" fill="#FFD2FD"/>
<path d="M91.872 158.688V163.68C95.616 163.584 96.672 162.912 96.96 162.528C97.056 162.432 97.056 162.336 97.056 162.144V162.048V158.688C97.056 157.536 96.672 156.288 96.096 155.232C94.944 153.312 92.928 152.544 91.392 152.256C91.2 152.64 90.72 152.832 90.144 153.024C91.968 155.424 91.872 158.496 91.872 158.688Z" fill="#FFEBD7"/>
<path d="M91.2 151.968C91.2 152.352 90.432 152.64 89.472 152.64C88.512 152.64 87.744 152.256 87.744 151.968C87.744 151.584 88.512 151.296 89.472 151.296C90.432 151.296 91.2 151.584 91.2 151.968Z" fill="#D7E2FF"/>
<path d="M133.824 172.992H108.672C107.52 172.992 106.656 172.128 106.656 170.976V145.728C106.656 144.576 107.52 143.712 108.672 143.712H133.92C135.072 143.712 135.936 144.576 135.936 145.728V170.88C135.936 172.032 135.072 172.992 133.824 172.992Z" fill="#8796A1"/>
<path d="M127.968 148.032H114.72C114.528 148.032 114.336 148.224 114.336 148.416V150.048H128.16V148.416C128.352 148.128 128.16 148.032 127.968 148.032Z" fill="#D7E2FF"/>
<path d="M128.352 154.464V150.624H126.24C126.144 151.296 126.24 153.312 128.352 154.464ZM114.432 154.464C116.448 153.312 116.544 151.296 116.544 150.624H114.432V154.464Z" fill="#FFEBD7"/>
<path d="M128.352 169.056V155.232C125.76 153.984 125.664 151.584 125.664 150.624H121.824V158.592L124.32 169.056C124.32 169.248 124.512 169.344 124.704 169.344H128.16C128.16 169.344 128.352 169.152 128.352 169.056ZM114.72 169.344H118.176C118.368 169.344 118.464 169.248 118.56 169.056L121.056 158.592V150.624H117.216C117.216 151.584 117.024 153.984 114.528 155.232V169.056C114.432 169.152 114.528 169.344 114.72 169.344Z" fill="#FFD2FD"/>
<path d="M131.616 135.84H39.36C36.96 135.84 34.944 133.92 34.944 131.424V39.2641C34.944 36.8641 36.864 34.8481 39.36 34.8481H131.52C133.92 34.8481 135.936 36.7681 135.936 39.2641V131.424C136.032 133.92 134.016 135.84 131.616 135.84Z" fill="#8796A1"/>
<path d="M88.128 74.208H82.848V98.592H88.128V74.208Z" fill="#D7E2FF"/>
<path d="M113.952 76.704L100.32 63.072L93.504 61.728C93.504 65.952 90.048 69.504 85.632 69.504C81.216 69.504 77.76 66.048 77.76 61.728L70.944 63.072L56.928 76.416L66.336 85.824L70.848 81.312V108.96H100.224V81.696L104.64 86.112L113.952 76.704Z" fill="white"/>
<path d="M95.52 74.208H75.36V98.592H95.424L95.52 74.208Z" fill="#FFD2FD"/>
<path d="M88.128 74.208H82.848V98.592H88.128V74.208Z" fill="#FFEBD7"/>
<path opacity="0.75" d="M240 0H0V208.32H240V0Z" fill="black"/>
<path d="M183.552 173.664H56.544C53.184 173.664 50.496 170.976 50.496 167.616V40.7038C50.496 37.3438 53.184 34.6558 56.544 34.6558H183.456C186.816 34.6558 189.504 37.3438 189.504 40.7038V167.616C189.6 170.976 186.912 173.664 183.552 173.664Z" fill="#8796A1"/>
<path d="M159.264 92.2562L140.448 73.4402L131.04 71.6162C131.04 77.4722 126.24 82.2722 120.192 82.2722C114.144 82.2722 109.344 77.4722 109.344 71.6162L99.936 73.4402L80.736 91.7762L93.696 104.736L99.936 98.4962V136.608H140.352V99.0722L146.4 105.12L159.264 92.2562Z" fill="white"/>
<path d="M133.824 88.7998H106.176V122.4H133.824V88.7998Z" fill="#FFD2FD"/>
<path d="M123.648 88.7998H116.352V122.4H123.648V88.7998Z" fill="#D7E2FF"/>
<path d="M123.648 88.7998H116.352V122.4H123.648V88.7998Z" fill="#FFEBD7"/>
<path fill-rule="evenodd" clip-rule="evenodd" d="M64.174 12.2834C65.7394 10.718 68.2621 10.718 69.8275 12.2834C71.3028 13.7587 71.3929 16.1124 70.0527 17.6891L72.4965 20.3131C72.8119 20.6284 72.3389 21.1014 72.0235 20.7861L69.5797 18.1621C68.0031 19.491 65.6493 19.4122 64.174 17.9369C62.6087 16.3715 62.6087 13.8488 64.174 12.2834ZM68.4648 14.7723H67.3274V13.6348C67.3274 13.1956 66.6516 13.1956 66.6516 13.6348V14.7723H65.5142C65.075 14.7723 65.075 15.448 65.5142 15.448H66.6516V16.5854C66.6516 17.0246 67.3274 17.0246 67.3274 16.5854V15.448H68.4648C68.9153 15.448 68.9153 14.7723 68.4648 14.7723ZM67.0008 11.7879C65.1651 11.7879 63.6785 13.2745 63.6785 15.1101C63.6785 16.9458 65.1651 18.4324 67.0008 18.4324C68.8364 18.4324 70.323 16.9458 70.323 15.1101C70.323 13.2745 68.8364 11.7879 67.0008 11.7879Z" fill="white"/>
<path fill-rule="evenodd" clip-rule="evenodd" d="M81.1101 12.2834C82.6755 10.718 85.1981 10.718 86.7635 12.2834C88.2388 13.7587 88.3289 16.1124 86.9888 17.6891L89.4326 20.3131C89.7479 20.6284 89.2749 21.1014 88.9596 20.7861L86.5158 18.1621C84.9391 19.491 82.5854 19.4122 81.1101 17.9369C79.5447 16.3715 79.5447 13.8488 81.1101 12.2834ZM84.2747 15.448H85.4121C85.8626 15.448 85.8626 14.7723 85.4121 14.7723H84.2747M84.2747 14.7723H82.4615C82.0223 14.7723 82.0223 15.448 82.4615 15.448H84.2747M83.9368 11.7879C82.1011 11.7879 80.6146 13.2745 80.6146 15.1101C80.6146 16.9458 82.1011 18.4324 83.9368 18.4324C85.7725 18.4324 87.259 16.9458 87.259 15.1101C87.259 13.2745 85.7725 11.7879 83.9368 11.7879Z" fill="white"/>
<path fill-rule="evenodd" clip-rule="evenodd" d="M96.8722 12.3652C96.8722 11.8968 97.2519 11.5171 97.7203 11.5171H106.444C106.912 11.5171 107.292 11.8968 107.292 12.3652V19.6346C107.292 20.103 106.912 20.4827 106.444 20.4827H97.7203C97.2519 20.4827 96.8722 20.103 96.8722 19.6346V12.3652ZM97.7203 12.244C97.6534 12.244 97.5991 12.2983 97.5991 12.3652V19.6346C97.5991 19.7016 97.6534 19.7558 97.7203 19.7558H106.444C106.511 19.7558 106.565 19.7016 106.565 19.6346V12.3652C106.565 12.2983 106.511 12.244 106.444 12.244H97.7203Z" fill="white"/>
<path fill-rule="evenodd" clip-rule="evenodd" d="M100.317 14.2269C100.434 14.2906 100.507 14.413 100.507 14.5461V17.4539C100.507 17.6546 100.344 17.8173 100.143 17.8173C99.9426 17.8173 99.7799 17.6546 99.7799 17.4539V15.213L99.3711 15.4767C99.2024 15.5855 98.9774 15.537 98.8686 15.3683C98.7598 15.1996 98.8084 14.9746 98.9771 14.8658L99.9463 14.2406C100.058 14.1685 100.2 14.1633 100.317 14.2269Z" fill="white"/>
<path fill-rule="evenodd" clip-rule="evenodd" d="M104.921 14.2269C105.038 14.2906 105.111 14.413 105.111 14.5461V17.4539C105.111 17.6546 104.948 17.8173 104.747 17.8173C104.547 17.8173 104.384 17.6546 104.384 17.4539V15.213L103.975 15.4767C103.806 15.5855 103.581 15.537 103.473 15.3683C103.364 15.1996 103.412 14.9746 103.581 14.8658L104.55 14.2406C104.662 14.1685 104.804 14.1633 104.921 14.2269Z" fill="white"/>
<path fill-rule="evenodd" clip-rule="evenodd" d="M102.082 14.6665C102.283 14.6665 102.445 14.8292 102.445 15.03V15.2723C102.445 15.473 102.283 15.6358 102.082 15.6358C101.881 15.6358 101.718 15.473 101.718 15.2723V15.03C101.718 14.8292 101.881 14.6665 102.082 14.6665Z" fill="white"/>
<path fill-rule="evenodd" clip-rule="evenodd" d="M102.082 16.3633C102.283 16.3633 102.445 16.526 102.445 16.7268V16.9691C102.445 17.1698 102.283 17.3325 102.082 17.3325C101.881 17.3325 101.718 17.1698 101.718 16.9691V16.7268C101.718 16.526 101.881 16.3633 102.082 16.3633Z" fill="white"/>
<path d="M114.678 16.0712C114.678 17.4888 115.285 18.8051 116.298 19.7163L115.032 19.7163C114.83 19.7163 114.627 19.8682 114.627 20.1214C114.627 20.3745 114.779 20.5264 115.032 20.5264L117.057 20.5264C117.564 20.5264 117.918 20.1214 117.969 19.6151L117.969 17.59C117.969 17.3875 117.817 17.185 117.564 17.185C117.31 17.185 117.159 17.3369 117.159 17.59L117.159 19.4632C115.285 18.1469 114.779 15.565 116.146 13.6412C116.905 12.5274 118.222 11.8692 119.589 11.8692C119.892 11.8692 120.196 11.8692 120.5 11.9705C120.702 11.9705 120.905 11.8692 120.956 11.6667C120.956 11.6667 120.956 11.6161 120.956 11.5655C120.956 11.4136 120.854 11.2111 120.652 11.2111C120.297 11.1098 119.943 11.1098 119.589 11.1098C116.855 11.1098 114.678 13.3374 114.627 16.0712L114.678 16.0712Z" fill="white"/>
<path d="M123.385 17.8426C123.233 18.1464 123.082 18.3995 122.93 18.6527C122.828 18.8045 122.828 19.0577 122.98 19.1589C123.132 19.2602 123.385 19.2602 123.487 19.1083C123.689 18.8045 123.892 18.5008 124.043 18.1464C124.043 18.1464 124.043 18.0451 124.043 17.9945C124.043 17.792 123.892 17.6401 123.638 17.6401C123.487 17.6401 123.335 17.7414 123.284 17.8426L123.385 17.8426Z" fill="white"/>
<path d="M120.651 20.1209C120.449 20.1209 120.297 20.3741 120.348 20.5766C120.348 20.7791 120.601 20.931 120.803 20.8803C121.158 20.7791 121.512 20.6778 121.816 20.4753C121.968 20.4247 122.018 20.2728 122.018 20.1209C122.018 20.0703 122.018 20.0197 122.018 19.969C121.917 19.7665 121.715 19.7159 121.512 19.8172C121.259 19.969 120.955 20.0703 120.651 20.1716L120.651 20.1209Z" fill="white"/>
<path d="M123.639 15.0587C123.689 15.3625 123.74 15.6662 123.74 15.97C123.74 16.1725 123.892 16.375 124.145 16.375C124.398 16.375 124.55 16.2231 124.55 15.97C124.55 15.6156 124.55 15.2612 124.398 14.9068C124.347 14.7043 124.145 14.6031 123.942 14.6537C123.74 14.7043 123.639 14.9068 123.689 15.0587L123.639 15.0587Z" fill="white"/>
<path d="M122.17 12.7801C122.423 12.9826 122.626 13.1851 122.828 13.4382C122.98 13.5901 123.183 13.6407 123.385 13.4889C123.537 13.337 123.588 13.1345 123.436 12.932C123.183 12.6282 122.93 12.3751 122.626 12.1726C122.474 12.0207 122.221 12.0207 122.069 12.1726C121.917 12.3245 121.917 12.5776 122.069 12.7295L122.17 12.7801Z" fill="white"/>
<path d="M141.758 16.0712C141.758 17.4888 141.15 18.8051 140.138 19.7163L141.403 19.7163C141.606 19.7163 141.808 19.8682 141.808 20.1214C141.808 20.3745 141.656 20.5264 141.403 20.5264L139.378 20.5264C138.872 20.5264 138.518 20.1214 138.467 19.6151L138.467 17.59C138.467 17.3875 138.619 17.185 138.872 17.185C139.125 17.185 139.277 17.3369 139.277 17.59L139.277 19.4632C141.15 18.1469 141.656 15.565 140.289 13.6412C139.53 12.5274 138.214 11.8692 136.847 11.8692C136.543 11.8692 136.239 11.8692 135.936 11.9705C135.733 11.9705 135.531 11.8692 135.48 11.6667C135.48 11.6667 135.48 11.6161 135.48 11.5655C135.48 11.4136 135.581 11.2111 135.784 11.2111C136.138 11.1098 136.492 11.1098 136.847 11.1098C139.581 11.1098 141.758 13.3374 141.808 16.0712L141.758 16.0712Z" fill="white"/>
<path d="M133.05 17.8426C133.202 18.1464 133.354 18.3995 133.506 18.6527C133.607 18.8045 133.607 19.0577 133.455 19.1589C133.303 19.2602 133.05 19.2602 132.949 19.1083C132.746 18.8045 132.544 18.5008 132.392 18.1464C132.392 18.1464 132.392 18.0451 132.392 17.9945C132.392 17.792 132.544 17.6401 132.797 17.6401C132.949 17.6401 133.101 17.7414 133.151 17.8426L133.05 17.8426Z" fill="white"/>
<path d="M135.784 20.1209C135.986 20.1209 136.138 20.3741 136.088 20.5766C136.088 20.7791 135.835 20.931 135.632 20.8803C135.278 20.7791 134.923 20.6778 134.62 20.4753C134.468 20.4247 134.417 20.2728 134.417 20.1209C134.417 20.0703 134.417 20.0197 134.417 19.969C134.518 19.7665 134.721 19.7159 134.923 19.8172C135.176 19.969 135.48 20.0703 135.784 20.1716L135.784 20.1209Z" fill="white"/>
<path d="M132.797 15.0587C132.746 15.3625 132.696 15.6662 132.696 15.97C132.696 16.1725 132.544 16.375 132.291 16.375C132.037 16.375 131.886 16.2231 131.886 15.97C131.886 15.6156 131.886 15.2612 132.037 14.9068C132.088 14.7043 132.291 14.6031 132.493 14.6537C132.696 14.7043 132.797 14.9068 132.746 15.0587L132.797 15.0587Z" fill="white"/>
<path d="M134.265 12.7801C134.012 12.9826 133.81 13.1851 133.607 13.4382C133.455 13.5901 133.253 13.6407 133.05 13.4889C132.898 13.337 132.848 13.1345 133 12.932C133.253 12.6282 133.506 12.3751 133.81 12.1726C133.961 12.0207 134.215 12.0207 134.366 12.1726C134.518 12.3245 134.518 12.5776 134.366 12.7295L134.265 12.7801Z" fill="white"/>
<path fill-rule="evenodd" clip-rule="evenodd" d="M153.8 21V11H154.27V20.9888H153.8V21Z" fill="white"/>
<path fill-rule="evenodd" clip-rule="evenodd" d="M152.682 12.0405C152.794 12.0629 152.872 12.1636 152.872 12.2643V19.7251C152.872 19.8593 152.771 19.96 152.637 19.96H149.371C149.293 19.96 149.214 19.9153 149.181 19.8593C149.136 19.7922 149.136 19.7139 149.158 19.6356L152.425 12.1748C152.469 12.0741 152.581 12.0182 152.682 12.0405ZM149.729 19.5014H152.402V13.394L149.729 19.5014Z" fill="white"/>
<path fill-rule="evenodd" clip-rule="evenodd" d="M155.389 12.0405C155.277 12.0629 155.199 12.1636 155.199 12.2643V19.7251C155.199 19.8593 155.299 19.96 155.434 19.96H158.7C158.778 19.96 158.856 19.9153 158.89 19.8593C158.935 19.7922 158.935 19.7139 158.912 19.6356L155.646 12.1748C155.601 12.0741 155.489 12.0182 155.389 12.0405ZM158.342 19.5014H155.668V13.394L158.342 19.5014Z" fill="white"/>
<path fill-rule="evenodd" clip-rule="evenodd" d="M166.262 15.7651L176.262 15.7651L176.262 16.2349L166.274 16.2349L166.274 15.7651L166.262 15.7651Z" fill="white"/>
<path fill-rule="evenodd" clip-rule="evenodd" d="M175.222 14.6466C175.2 14.7584 175.099 14.8367 174.998 14.8367L167.538 14.8367C167.403 14.8367 167.303 14.7361 167.303 14.6018L167.303 11.3356C167.303 11.2573 167.347 11.179 167.403 11.1455C167.47 11.1007 167.549 11.1007 167.627 11.1231L175.088 14.3893C175.189 14.4341 175.245 14.5459 175.222 14.6466ZM167.761 11.6936L167.761 14.3669L173.869 14.3669L167.761 11.6936Z" fill="white"/>
<path fill-rule="evenodd" clip-rule="evenodd" d="M175.222 17.3537C175.2 17.2419 175.099 17.1636 174.998 17.1636L167.538 17.1636C167.403 17.1636 167.303 17.2642 167.303 17.3985L167.303 20.6647C167.303 20.743 167.347 20.8213 167.403 20.8548C167.47 20.8996 167.549 20.8996 167.627 20.8772L175.088 17.611C175.189 17.5663 175.245 17.4544 175.222 17.3537ZM167.761 20.3068L167.761 17.6334L173.869 17.6334L167.761 20.3068Z" fill="white"/>
<rect x="57" y="7" width="127" height="19" rx="2" stroke="#F21197"/>
</g>
<defs>
<clipPath id="clip0_2720_12034">
<rect width="240" height="207.84" fill="white"/>
</clipPath>
</defs>
</svg>
