<svg xmlns="http://www.w3.org/2000/svg" width="150" height="100" fill="none"><g clip-path="url(#A)"><path d="M150 0H0V100H150V0Z" fill="#fff"/><g fill="#8796a1"><path d="M27.6 91.9H11.3c-.8 0-1.4-.5-1.4-1.4V74.1c0-.8.5-1.4 1.4-1.4h16.4c.8 0 1.4.5 1.4 1.4v16.4c0 .7-.6 1.4-1.5 1.4z" stroke="#1fb4ff" stroke-width=".5" stroke-miterlimit="10"/><path d="M71.8 8.7c-.6-.6-1.3-.9-2.1-.9H12.6c-.8 0-1.6.3-2.1.9s-.9 1.3-.9 2.1v57.1c0 .8.3 1.6.9 2.1s1.3.9 2.1.9h57.1c.8 0 1.6-.3 2.1-.9s.9-1.3.9-2.1V10.8c0-.8-.3-1.6-.9-2.1zm-.7 64H54.7c-.9 0-1.4.6-1.4 1.4v16.4c0 .9.6 1.4 1.4 1.4h16.4c.8 0 1.4-.7 1.4-1.4V74.1c0-.9-.6-1.4-1.4-1.4zm-20.8.3c-.2-.2-.6-.3-.9-.3H33c-.9 0-1.4.6-1.4 1.4v16.4c0 .9.6 1.4 1.4 1.4h16.3c.9 0 1.4-.7 1.5-1.4V74.1c0-.5-.2-.9-.5-1.1z"/><path d="M69.7 8.1c.4 0 .7 0 1 .2.3.1.6.3.9.6s.4.5.6.9c.1.3.2.7.2 1v57.1c0 .4 0 .7-.2 1-.1.3-.3.6-.6.9s-.5.4-.9.6c-.3.1-.7.2-1 .2H12.6c-.4 0-.7 0-1-.2-.3-.1-.6-.3-.9-.6s-.4-.5-.6-.9c-.1-.3-.2-.7-.2-1V10.8c0-.4 0-.7.2-1 .1-.3.3-.6.6-.9s.5-.4.9-.6c.3-.1.7-.2 1-.2h57.1zm0-.5H12.6c-1.8 0-3.2 1.4-3.2 3.2v57.1c0 1.8 1.4 3.2 3.2 3.2h57.1c1.8 0 3.2-1.4 3.2-3.2V10.8c0-1.8-1.4-3.2-3.2-3.2z"/></g><path d="M26.3 80.3L23 77l-1.7-.3c0 .9-.8 1.8-1.9 1.8s-1.9-.8-1.9-1.8l-1.7.3-3.2 3.2 2.2 2.2 1.1-1.1v6.6H23v-6.6l1.1 1.1 2.2-2.1z" fill="#fff"/><path d="M22 79.6h-5v6h5v-6z" fill="#ffd2fd"/><path d="M18.3 79.6H17v6h1.3v-6z" fill="#d7e2ff"/><path d="M22 79.6h-1.3v6H22v-6z" fill="#ffebd7"/><path d="M71.1 35.1L57.3 48.3l-6.9-6.9v29.5H12.6c-.8 0-1.6-.3-2.1-.9s-.9-1.3-.9-2.1V13.5l6.1-1.1c0 6.3 5 11.3 12 11.3s12-5.7 12-11.3l10.7 1.9 20.8 20.8h-.1z" fill="#fff"/><path d="M44 30.7H12.6v37.8h31.5V30.7H44z" fill="#ffd2fd"/><path d="M20.7 30.7h-8.2v37.8h8.2V30.7z" fill="#d7e2ff"/><path d="M44 30.7h-8.2v37.8H44V30.7z" fill="#ffebd7"/><path d="M66.8 76.1H59s-.2 0-.2.2v.9H67v-.9c0-.2 0-.2-.2-.2z" fill="#d7e2ff"/><path d="M67 79.8v-2.3h-1.2c0 .5 0 1.6 1.2 2.3zm-8.2 0c1.2-.7 1.2-1.9 1.2-2.3h-1.2v2.3z" fill="#ffebd7"/><path d="M67 88.5v-8.1c-1.5-.8-1.7-2.2-1.6-2.7h-2.3v4.7l1.5 6.2h.2 2.1v-.2l.1.1zm-8 .1h2.1.2l1.5-6.2v-4.7h-2.3c0 .5 0 1.9-1.6 2.7v8.1c-.1 0 0 .2 0 .2l.1-.1z" fill="#ffd2fd"/><path d="M36 86.3c2.2.5 4.3.5 7.2-.2l1.5-.6H44c-5 0-6.3-.8-6.6-1.2v-.2c-1.3.2-3 .6-3.1 1.1-.1.3.6.8 1.8 1.1H36z" fill="#d7e2ff"/><path d="M43.9 85.2v-3s0-1.9-1.1-3.3c-.6 0-1.1-.2-1.2-.5-1.3 0-3.7.8-3.9 3.8V84v.2c.3.3 1.4 1 6.3 1h-.1z" fill="#ffd2fd"/><path d="M44.1 82.3v3c2.2-.1 2.8-.5 3-.7v-.2-2c0-.7-.2-1.4-.5-2.1-.7-1.2-1.8-1.6-2.8-1.8-.1.2-.4.4-.8.4 1 1.5 1 3.3 1 3.4h.1z" fill="#ffebd7"/><path d="M43.7 78.4c0 .2-.5.4-1 .4s-1-.2-1-.4.5-.4 1-.4 1 0 1 .4z" fill="#d7e2ff"/><path d="M140.2 19H78.4c-.8 0-1.4-.6-1.4-1.4s.6-1.4 1.4-1.4h61.9c.8 0 1.4.6 1.4 1.4s-.7 1.4-1.5 1.4z" fill="#8796a1"/><path d="M88.9 83.6H77.2s-.2 0-.2-.2v-5s0-.2.2-.2h11.7s.2.1.2.2v5s0 .2-.2.2z" fill="#acb6bc"/><path d="M109.2 83.6h-18s-.2 0-.2-.2v-5s0-.2.2-.2h18.1s.2.1.2.2v5s0 .2-.3.2z" fill="#8796a1"/><g fill="#acb6bc"><path d="M93.5 25.1H77.8c-.5 0-.9-.4-.9-.9s.4-.9.9-.9h15.7c.5 0 .9.4.9.9 0 .4-.3.9-.9.9zm0 41.5H77.8c-.5 0-.9-.4-.9-.9s.4-.9.9-.9h15.7c.5 0 .9.4.9.9 0 .6-.3.9-.9.9zm6.7 4.2H77.9c-.5 0-.9-.4-.9-.9s.4-.9.9-.9h22.3c.5 0 .9.4.9.9 0 .4-.5.9-.9.9z"/><use href="#B"/><path d="M141.2 39.2H77.4c-.2 0-.4-.2-.4-.4s.2-.4.4-.4h63.8c.2 0 .4.2.4.4s-.2.4-.4.4zm0 4.1H77.4c-.2 0-.4-.2-.4-.4s.2-.4.4-.4h63.8c.2 0 .4.2.4.4s-.2.4-.4.4zm-14.1 4.1H77.4c-.2 0-.4-.2-.4-.4s.2-.4.4-.4h49.8c.2 0 .4.2.4.4s-.2.4-.5.4zm-15.2 6.8H77.4c-.2 0-.4-.2-.4-.4s.2-.4.4-.4h34.5c.2 0 .4.2.4.4s-.2.4-.4.4zm-3.4 4H77.4c-.2 0-.4-.2-.4-.4s.2-.4.4-.4h31.2c.2 0 .4.2.4.4s-.2.4-.5.4z"/></g><g stroke="#fff"><path d="M86.1 79.3v3"/><path d="M84.6 80.8h3"/></g><path d="M54.5 37L49 31.4c-.2-.2-.5 0-.5.2v7.6c0 .2 0 .3.3.3h.2l1.5-1.3 1.3 2.9h.1l1.3-.6s.2-.2 0-.3L52 37.4h2.1c.2 0 .3-.1.3-.3h-.2l.3-.1z" fill="#fff" stroke="#2b2b2b" stroke-width=".2" stroke-miterlimit="10"/></g><defs><clipPath id="A"><path fill="#fff" d="M0 0h150v100H0z"/></clipPath><path id="B" d="M141.2 35.1H77.4c-.2 0-.4-.2-.4-.4s.2-.4.4-.4h63.8c.2 0 .4.2.4.4s-.2.4-.4.4z"/></defs></svg>