<svg width="122" height="123" viewBox="0 0 122 123" fill="none" xmlns="http://www.w3.org/2000/svg">
<path d="M0 10.2619V112.738C0 118.203 4.25038 122.5 9.76187 122.5H112.238C117.703 122.5 122 118.25 122 112.738V10.2619C122 4.79709 117.75 0.5 112.238 0.5H9.71516C4.25038 0.5 0 4.79709 0 10.2619ZM108.548 113.999H13.4051C10.6493 113.999 8.54747 111.851 8.54747 109.142V13.9518C8.54747 11.196 10.696 9.09418 13.4051 9.09418H108.548C111.304 9.09418 113.406 11.2427 113.406 13.9518V109.095C113.406 111.851 111.257 113.953 108.548 113.953V113.999Z" fill="#E2CDF7"/>
<path d="M39.9349 88.6837V103.023C39.9349 104.237 38.7205 105.452 37.5061 105.452H19.5238C18.3094 105.452 17.095 104.237 17.095 103.023V88.6837C17.095 87.4693 18.3094 86.2549 19.5238 86.2549H37.5061C38.7205 86.2549 39.9349 87.4693 39.9349 88.6837Z" fill="#E2CDF7"/>
<path d="M73.4709 88.6837V103.023C73.4709 104.237 72.2565 105.452 71.0421 105.452H50.9112C49.6968 105.452 48.4824 104.237 48.4824 103.023V88.6837C48.4824 87.4693 49.6968 86.2549 50.9112 86.2549H71.0421C72.2565 86.2549 73.4709 87.4693 73.4709 88.6837Z" fill="#E2CDF7"/>
<path d="M104.905 88.6837V103.023C104.905 104.237 103.691 105.452 102.476 105.452H84.494C83.2796 105.452 82.0652 104.237 82.0652 103.023V88.6837C82.0652 87.4693 83.2796 86.2549 84.494 86.2549H102.476C103.691 86.2549 104.905 87.4693 104.905 88.6837Z" fill="#E2CDF7"/>
<path d="M17.0482 20.024V75.2323C17.0482 76.4467 18.2626 77.6611 19.477 77.6611H102.43C103.644 77.6611 104.858 76.4467 104.858 75.2323V20.024C104.858 18.8096 103.644 17.5952 102.43 17.5952H19.5237C18.3093 17.5952 17.0949 18.8096 17.0949 20.024H17.0482ZM27.464 65.4704L46.6608 30.0661C47.5949 28.2445 50.0237 28.2445 50.9112 30.0661L64.6432 55.1013C65.5773 56.9229 68.0061 56.9229 68.8935 55.1013L70.7151 51.4582C71.6493 49.6366 74.0781 49.6366 74.9655 51.4582L82.6256 65.4704C83.5597 67.0118 82.2986 69.1136 80.477 69.1136H29.8928C27.7442 69.1136 26.8568 67.292 27.464 65.4704ZM85.7082 48.0952C79.6363 48.0952 74.405 43.2376 74.405 36.792C74.405 31.0003 79.2626 26.096 85.101 26.096C90.9395 26.096 96.4043 30.9536 96.4043 37.3992C96.4043 43.1909 91.5467 48.0952 85.7082 48.0952Z" fill="#E2CDF7"/>
</svg>
