<svg width="65" height="64" viewBox="0 0 65 64" fill="none" xmlns="http://www.w3.org/2000/svg">
<g clip-path="url(#clip0_2098_1005)">
<path d="M57.3261 -0.000244141H8.54544C4.36688 -0.000244141 0.979492 3.38768 0.979492 7.56691V56.3553C0.979492 60.5345 4.36688 63.9225 8.54544 63.9225H57.3261C61.5047 63.9225 64.8921 60.5345 64.8921 56.3553V7.56691C64.8921 3.38768 61.5047 -0.000244141 57.3261 -0.000244141Z" fill="url(#paint0_linear_2098_1005)"/>
<path d="M49.3185 25.4251L19.5339 22.6502C19.3716 22.627 19.217 22.627 19.0625 22.6502L17.8646 16.8763C17.8337 16.7603 17.8105 16.6444 17.7564 16.5439C17.5709 16.0801 17.1845 15.7091 16.6822 15.5545L11.0019 13.885C10.1286 13.6222 9.20123 14.1246 8.9462 15.0057C8.68344 15.8792 9.18577 16.8067 10.0745 17.0618L14.8119 18.4531L20.5076 45.9236C20.6158 46.7352 21.3114 47.3536 22.1538 47.3536H46.66C47.572 47.3536 48.3139 46.6115 48.3139 45.6917C48.3139 44.7719 47.5797 44.0376 46.66 44.0376H23.5062L22.7179 40.2502H47.0928C48.368 40.2502 49.4731 39.4077 49.7049 38.2405L51.6757 28.3082C51.9384 26.8782 50.8642 25.5565 49.3185 25.4096V25.4251ZM29.542 34.2289C29.542 34.5768 29.2019 34.8628 28.7769 34.8628H26.1647C25.7397 34.8628 25.3996 34.5768 25.3996 34.2289V29.9623C25.3996 29.6144 25.7474 29.3285 26.1647 29.3285H28.7769C29.2019 29.3285 29.542 29.6144 29.542 29.9623V34.2289ZM36.3119 34.2289C36.3119 34.5768 35.9719 34.8628 35.5468 34.8628H32.9347C32.5096 34.8628 32.1696 34.5768 32.1696 34.2289V29.9623C32.1696 29.6144 32.5173 29.3285 32.9347 29.3285H35.5468C35.9719 29.3285 36.3119 29.6144 36.3119 29.9623V34.2289ZM43.0741 34.2289C43.0741 34.5768 42.7341 34.8628 42.309 34.8628H39.6969C39.2718 34.8628 38.9318 34.5768 38.9318 34.2289V29.9623C38.9318 29.6144 39.2796 29.3285 39.6969 29.3285H42.309C42.7341 29.3285 43.0741 29.6144 43.0741 29.9623V34.2289Z" fill="white"/>
<path d="M30.1785 52.4363C30.3091 50.6139 28.9377 49.0307 27.1153 48.9C25.2929 48.7694 23.7096 50.1408 23.579 51.9632C23.4484 53.7856 24.8199 55.3689 26.6423 55.4995C28.4647 55.6302 30.0479 54.2587 30.1785 52.4363Z" fill="white"/>
<path d="M42.6644 55.4758C44.4915 55.4758 45.9726 53.9947 45.9726 52.1676C45.9726 50.3405 44.4915 48.8594 42.6644 48.8594C40.8373 48.8594 39.3562 50.3405 39.3562 52.1676C39.3562 53.9947 40.8373 55.4758 42.6644 55.4758Z" fill="white"/>
<path d="M24.032 21.365L24.403 21.4037L25.5777 21.5119L30.4078 21.9602L30.5856 20.1051C30.8251 17.593 33.0431 15.7612 35.5548 15.993C38.0665 16.2326 39.8981 18.451 39.6662 20.9631L39.4885 22.8182L44.3186 23.2665L45.8566 23.4133C46.4285 23.4674 46.9308 23.05 46.9772 22.4781L47.1317 20.824C47.1858 20.252 46.7685 19.7496 46.1966 19.7032L44.6587 19.5563C44.535 18.281 44.1486 17.0674 43.5535 15.9776L44.7514 14.9882C45.1919 14.6249 45.2538 13.9679 44.8828 13.5273L43.8318 12.252C43.4685 11.8114 42.8116 11.7496 42.3711 12.1206L41.1732 13.1022C40.2072 12.3215 39.1021 11.7186 37.8656 11.3554L38.0124 9.81719C38.0665 9.24521 37.6492 8.74279 37.0773 8.69642L35.4234 8.54183C34.8515 8.48772 34.3492 8.90511 34.3028 9.47709L34.156 11.0153C32.8808 11.1389 31.6675 11.5254 30.5778 12.1206L29.5886 10.9225C29.2254 10.4819 28.5685 10.4201 28.128 10.7911L26.8528 11.8423C26.4123 12.2056 26.3505 12.8626 26.7214 13.3032L27.7107 14.5012C26.9301 15.4674 26.3273 16.5727 25.9641 17.8095L24.4261 17.6626C23.8543 17.6085 23.3519 18.0259 23.3056 18.5979L23.151 20.252C23.066 20.8317 23.491 21.3264 24.0552 21.3805L24.032 21.365Z" fill="white"/>
</g>
<defs>
<linearGradient id="paint0_linear_2098_1005" x1="32.9358" y1="-0.000244141" x2="32.9358" y2="63.9225" gradientUnits="userSpaceOnUse">
<stop stop-color="#D852BE"/>
<stop offset="1" stop-color="#930E7B"/>
</linearGradient>
<clipPath id="clip0_2098_1005">
<rect width="63.9898" height="64" fill="white" transform="translate(0.979736)"/>
</clipPath>
</defs>
</svg>
