<svg width="231" height="42" viewBox="0 0 231 42" fill="none" xmlns="http://www.w3.org/2000/svg">
<g clip-path="url(#clip0_2569_3789)">
<path d="M0 3.36064V38.6394C0 40.5207 1.46325 42 3.36064 42H38.6394C40.5207 42 42 40.5368 42 38.6394V3.36064C42 1.47933 40.5368 0 38.6394 0H3.34456C1.46325 0 0 1.47933 0 3.36064ZM37.3691 39.0735H4.61485C3.66616 39.0735 2.94257 38.3338 2.94257 37.4012V4.63093C2.94257 3.68224 3.68224 2.95865 4.61485 2.95865H37.3691C38.3178 2.95865 39.0413 3.69832 39.0413 4.63093V37.3851C39.0413 38.3338 38.3017 39.0574 37.3691 39.0574V39.0735Z" fill="url(#paint0_linear_2569_3789)"/>
<path d="M13.7482 30.3584V35.2948C13.7482 35.7129 13.3301 36.1309 12.9121 36.1309H6.72139C6.30332 36.1309 5.88525 35.7129 5.88525 35.2948V30.3584C5.88525 29.9403 6.30332 29.5222 6.72139 29.5222H12.9121C13.3301 29.5222 13.7482 29.9403 13.7482 30.3584Z" fill="url(#paint1_linear_2569_3789)"/>
<path d="M25.2933 30.3584V35.2948C25.2933 35.7129 24.8752 36.1309 24.4571 36.1309H17.5268C17.1087 36.1309 16.6907 35.7129 16.6907 35.2948V30.3584C16.6907 29.9403 17.1087 29.5222 17.5268 29.5222H24.4571C24.8752 29.5222 25.2933 29.9403 25.2933 30.3584Z" fill="url(#paint2_linear_2569_3789)"/>
<path d="M36.1149 30.3584V35.2948C36.1149 35.7129 35.6968 36.1309 35.2788 36.1309H29.0881C28.67 36.1309 28.252 35.7129 28.252 35.2948V30.3584C28.252 29.9403 28.67 29.5222 29.0881 29.5222H35.2788C35.6968 29.5222 36.1149 29.9403 36.1149 30.3584Z" fill="url(#paint3_linear_2569_3789)"/>
<path d="M5.86914 6.72139V25.7275C5.86914 26.1456 6.28721 26.5637 6.70528 26.5637H35.2627C35.6808 26.5637 36.0989 26.1456 36.0989 25.7275V6.72139C36.0989 6.30332 35.6808 5.88525 35.2627 5.88525H6.72136C6.30329 5.88525 5.88522 6.30332 5.88522 6.72139H5.86914ZM9.4549 22.3669L16.0636 10.1785C16.3852 9.55141 17.2214 9.55141 17.5269 10.1785L22.2543 18.7972C22.5759 19.4243 23.412 19.4243 23.7175 18.7972L24.3446 17.543C24.6662 16.9159 25.5024 16.9159 25.8079 17.543L28.4449 22.3669C28.7665 22.8975 28.3324 23.6211 27.7053 23.6211H10.291C9.55138 23.6211 9.24586 22.994 9.4549 22.3669ZM29.5062 16.3853C27.4159 16.3853 25.6149 14.713 25.6149 12.494C25.6149 10.5001 27.2872 8.81175 29.2972 8.81175C31.3071 8.81175 33.1884 10.484 33.1884 12.703C33.1884 14.6969 31.5162 16.3853 29.5062 16.3853Z" fill="url(#paint4_linear_2569_3789)"/>
<path d="M63.5949 32.0145C63.016 32.0145 62.5497 31.8698 62.1959 31.5964C61.8422 31.323 61.5527 30.8728 61.3437 30.2779L54.6224 11.2717C54.3812 10.5803 54.4295 10.0015 54.7671 9.53514C55.1048 9.06883 55.6676 8.82764 56.4555 8.82764C57.0344 8.82764 57.4846 8.95627 57.8062 9.22963C58.1278 9.50298 58.3851 9.92105 58.578 10.4999L64.3667 27.673H63.0803L69.1263 10.5321C69.3353 9.95321 69.6086 9.51906 69.9302 9.24571C70.2518 8.97235 70.6699 8.82764 71.1844 8.82764C71.699 8.82764 72.101 8.97235 72.4065 9.24571C72.712 9.51906 72.9693 9.96929 73.1783 10.5642L79.0313 27.673H77.9057L83.7909 10.4999C83.9838 9.93713 84.2411 9.51906 84.5627 9.24571C84.8843 8.97235 85.3184 8.82764 85.8812 8.82764C86.5727 8.82764 87.0711 9.06883 87.3927 9.53514C87.7143 10.0015 87.7625 10.5803 87.5214 11.2717L80.7357 30.31C80.5267 30.8889 80.2373 31.323 79.8996 31.5964C79.5619 31.8698 79.0956 32.0145 78.5168 32.0145C77.9379 32.0145 77.4716 31.8698 77.1339 31.5964C76.7962 31.323 76.5068 30.8728 76.2978 30.2779L70.7021 14.3269H71.4417L65.7817 30.31C65.5727 30.8889 65.2993 31.323 64.9616 31.5964C64.624 31.8698 64.1737 32.0145 63.5949 32.0145Z" fill="#303030"/>
<path d="M94.9822 32.0788C93.3582 32.0788 91.9431 31.7411 90.7372 31.0818C89.5312 30.4226 88.5986 29.4739 87.9393 28.2357C87.2801 26.9976 86.9424 25.5505 86.9424 23.8782C86.9424 22.6079 87.1353 21.4823 87.5052 20.4854C87.875 19.4884 88.4217 18.6362 89.1292 17.9126C89.8367 17.189 90.6889 16.6423 91.6698 16.2725C92.6507 15.9027 93.7601 15.7097 94.9822 15.7097C96.6062 15.7097 98.0212 16.0474 99.2272 16.7067C100.433 17.3659 101.366 18.3146 102.025 19.5367C102.684 20.7587 103.022 22.2059 103.022 23.8782C103.022 25.1485 102.829 26.274 102.459 27.2871C102.089 28.3001 101.543 29.1523 100.835 29.8759C100.128 30.5995 99.2755 31.1462 98.2946 31.516C97.3137 31.8858 96.2043 32.0788 94.9822 32.0788ZM94.9822 29.0237C95.7701 29.0237 96.4776 28.8307 97.0725 28.4448C97.6675 28.0589 98.1338 27.48 98.4715 26.7243C98.8092 25.9685 98.9699 25.0198 98.9699 23.8782C98.9699 22.1576 98.6001 20.8874 97.8765 20.0351C97.1529 19.1829 96.1882 18.7648 94.9822 18.7648C94.1943 18.7648 93.4868 18.9578 92.8918 19.3276C92.2969 19.6975 91.8306 20.2763 91.4929 21.0321C91.1552 21.7878 90.9945 22.7365 90.9945 23.8782C90.9945 25.5665 91.3643 26.8529 92.0879 27.7212C92.8114 28.5895 93.7762 29.0237 94.9822 29.0237Z" fill="#303030"/>
<path d="M113.506 32.0788C111.882 32.0788 110.467 31.7411 109.261 31.0818C108.055 30.4226 107.123 29.4739 106.463 28.2357C105.804 26.9976 105.466 25.5505 105.466 23.8782C105.466 22.6079 105.659 21.4823 106.029 20.4854C106.399 19.4884 106.946 18.6362 107.653 17.9126C108.361 17.189 109.213 16.6423 110.194 16.2725C111.175 15.9027 112.284 15.7097 113.506 15.7097C115.13 15.7097 116.545 16.0474 117.751 16.7067C118.957 17.3659 119.89 18.3146 120.549 19.5367C121.208 20.7587 121.546 22.2059 121.546 23.8782C121.546 25.1485 121.353 26.274 120.983 27.2871C120.613 28.3001 120.067 29.1523 119.359 29.8759C118.652 30.5995 117.799 31.1462 116.819 31.516C115.838 31.8858 114.728 32.0788 113.506 32.0788ZM113.506 29.0237C114.294 29.0237 115.002 28.8307 115.596 28.4448C116.191 28.0589 116.658 27.48 116.995 26.7243C117.333 25.9685 117.494 25.0198 117.494 23.8782C117.494 22.1576 117.124 20.8874 116.4 20.0351C115.677 19.1829 114.712 18.7648 113.506 18.7648C112.718 18.7648 112.011 18.9578 111.416 19.3276C110.821 19.6975 110.355 20.2763 110.017 21.0321C109.679 21.7878 109.518 22.7365 109.518 23.8782C109.518 25.5665 109.888 26.8529 110.612 27.7212C111.335 28.5895 112.3 29.0237 113.506 29.0237Z" fill="#303030"/>
<path d="M136.146 32.0789C133.638 32.0789 131.515 31.6126 129.795 30.6639C128.074 29.7152 126.756 28.3806 125.855 26.644C124.955 24.9074 124.504 22.8492 124.504 20.4694C124.504 18.6685 124.762 17.0444 125.292 15.6134C125.823 14.1823 126.579 12.9441 127.576 11.9311C128.573 10.9181 129.795 10.1302 131.226 9.58349C132.657 9.03678 134.297 8.76343 136.114 8.76343C137.32 8.76343 138.526 8.90814 139.732 9.19758C140.938 9.48701 142.079 9.9694 143.157 10.6608C143.527 10.902 143.768 11.1915 143.88 11.5291C143.993 11.8668 144.009 12.2205 143.929 12.5743C143.848 12.9281 143.687 13.2336 143.446 13.4908C143.205 13.7481 142.916 13.9089 142.562 13.9732C142.208 14.0375 141.822 13.9571 141.388 13.716C140.568 13.2496 139.748 12.8959 138.912 12.6869C138.076 12.4778 137.143 12.3653 136.114 12.3653C134.522 12.3653 133.187 12.6869 132.094 13.314C131.001 13.9411 130.181 14.8576 129.634 16.0636C129.087 17.2696 128.814 18.7328 128.814 20.4694C128.814 23.1065 129.441 25.1164 130.711 26.4832C131.981 27.85 133.847 28.5414 136.339 28.5414C137.191 28.5414 138.06 28.461 138.944 28.2841C139.828 28.1072 140.681 27.8821 141.517 27.5766L140.713 29.4097V22.5598H137.175C136.645 22.5598 136.226 22.415 135.937 22.1417C135.648 21.8683 135.503 21.4824 135.503 21.0161C135.503 20.5498 135.648 20.1478 135.937 19.8905C136.226 19.6333 136.645 19.5046 137.175 19.5046H142.481C143.012 19.5046 143.43 19.6493 143.72 19.9388C144.009 20.2282 144.154 20.6463 144.154 21.1769V28.9916C144.154 29.4579 144.057 29.8599 143.88 30.1815C143.703 30.5031 143.398 30.7443 142.996 30.889C142.047 31.2267 140.97 31.5161 139.748 31.7412C138.526 31.9663 137.32 32.0789 136.146 32.0789Z" fill="#303030"/>
<path d="M153.705 32.0788C152.564 32.0788 151.551 31.8537 150.666 31.4195C149.782 30.9854 149.074 30.3904 148.576 29.6347C148.077 28.8789 147.82 28.0428 147.82 27.0941C147.82 25.9364 148.126 25.0198 148.721 24.3445C149.315 23.6691 150.296 23.1867 151.647 22.8812C152.998 22.5757 154.815 22.431 157.082 22.431H158.69V24.7465H157.114C155.779 24.7465 154.718 24.8108 153.93 24.9394C153.142 25.0681 152.58 25.2932 152.242 25.5987C151.904 25.9042 151.744 26.3384 151.744 26.9011C151.744 27.6086 151.985 28.1875 152.483 28.6377C152.982 29.088 153.657 29.3131 154.541 29.3131C155.249 29.3131 155.876 29.1523 156.423 28.8146C156.969 28.4769 157.404 28.0267 157.725 27.4478C158.047 26.869 158.208 26.2097 158.208 25.454V21.7557C158.208 20.6783 157.966 19.9065 157.5 19.4402C157.034 18.9739 156.23 18.7327 155.12 18.7327C154.493 18.7327 153.834 18.8131 153.11 18.9578C152.387 19.1025 151.631 19.3598 150.843 19.7296C150.441 19.9226 150.071 19.9708 149.766 19.8904C149.46 19.81 149.219 19.6331 149.042 19.3598C148.865 19.0864 148.785 18.797 148.785 18.4754C148.785 18.1538 148.865 17.8322 149.042 17.5267C149.219 17.2212 149.508 16.98 149.91 16.8353C150.891 16.4333 151.84 16.1439 152.757 15.967C153.673 15.7901 154.493 15.7097 155.249 15.7097C156.793 15.7097 158.063 15.9509 159.06 16.4172C160.057 16.8835 160.796 17.6071 161.295 18.5558C161.793 19.5045 162.034 20.7426 162.034 22.238V29.9563C162.034 30.6155 161.874 31.1301 161.552 31.4838C161.23 31.8376 160.764 32.0145 160.169 32.0145C159.574 32.0145 159.108 31.8376 158.77 31.4838C158.433 31.1301 158.272 30.6155 158.272 29.9563V28.4126H158.529C158.384 29.1684 158.079 29.8116 157.645 30.3583C157.211 30.905 156.648 31.323 155.989 31.6286C155.329 31.9341 154.557 32.0788 153.705 32.0788Z" fill="#303030"/>
<path d="M171.489 32.0788C169.704 32.0788 168.37 31.5642 167.469 30.5512C166.569 29.5382 166.119 28.0428 166.119 26.065V10.8537C166.119 10.1944 166.296 9.67986 166.633 9.34219C166.971 9.00451 167.469 8.82764 168.113 8.82764C168.756 8.82764 169.254 9.00451 169.608 9.34219C169.962 9.67986 170.139 10.1944 170.139 10.8537V25.872C170.139 26.8529 170.348 27.5926 170.766 28.0589C171.184 28.5252 171.779 28.7664 172.551 28.7664C172.727 28.7664 172.888 28.7664 173.033 28.7664C173.178 28.7664 173.338 28.7342 173.483 28.7181C173.789 28.6699 173.982 28.7503 174.094 28.9593C174.207 29.1684 174.255 29.5704 174.255 30.1975C174.255 30.7281 174.142 31.1462 173.933 31.4517C173.724 31.7572 173.371 31.9341 172.872 31.9984C172.663 32.0145 172.438 32.0466 172.197 32.0627C171.956 32.0788 171.73 32.0949 171.489 32.0949V32.0788Z" fill="#303030"/>
<path d="M181.748 32.0788C179.963 32.0788 178.629 31.5642 177.728 30.5512C176.828 29.5382 176.377 28.0428 176.377 26.065V10.8537C176.377 10.1944 176.554 9.67986 176.892 9.34219C177.23 9.00451 177.728 8.82764 178.371 8.82764C179.014 8.82764 179.513 9.00451 179.867 9.34219C180.22 9.67986 180.397 10.1944 180.397 10.8537V25.872C180.397 26.8529 180.606 27.5926 181.024 28.0589C181.443 28.5252 182.037 28.7664 182.809 28.7664C182.986 28.7664 183.147 28.7664 183.292 28.7664C183.436 28.7664 183.597 28.7342 183.742 28.7181C184.047 28.6699 184.24 28.7503 184.353 28.9593C184.465 29.1684 184.514 29.5704 184.514 30.1975C184.514 30.7281 184.401 31.1462 184.192 31.4517C183.983 31.7572 183.629 31.9341 183.131 31.9984C182.922 32.0145 182.697 32.0466 182.456 32.0627C182.214 32.0788 181.989 32.0949 181.748 32.0949V32.0788Z" fill="#303030"/>
<path d="M194.387 32.0788C192.602 32.0788 191.074 31.7411 189.788 31.0818C188.501 30.4226 187.504 29.4739 186.813 28.2518C186.122 27.0298 185.768 25.5826 185.768 23.9103C185.768 22.238 186.106 20.8552 186.781 19.6331C187.456 18.4111 188.389 17.4463 189.579 16.7549C190.769 16.0635 192.119 15.7097 193.647 15.7097C194.756 15.7097 195.769 15.8866 196.654 16.2564C197.538 16.6263 198.31 17.1408 198.937 17.8322C199.564 18.5237 200.047 19.3437 200.384 20.3246C200.722 21.3054 200.883 22.3988 200.883 23.6209C200.883 24.0068 200.754 24.2962 200.481 24.5053C200.207 24.7143 199.838 24.8108 199.339 24.8108H189.016V22.4953H198.053L197.538 22.9777C197.538 21.9969 197.393 21.1607 197.104 20.5014C196.815 19.8422 196.396 19.3276 195.85 18.9739C195.303 18.6201 194.628 18.4433 193.808 18.4433C192.907 18.4433 192.135 18.6523 191.508 19.0704C190.881 19.4884 190.399 20.0834 190.061 20.8391C189.723 21.5949 189.563 22.5114 189.563 23.5566V23.7817C189.563 25.5344 189.981 26.8529 190.801 27.7212C191.621 28.5895 192.843 29.0237 194.451 29.0237C195.014 29.0237 195.641 28.9593 196.332 28.8146C197.024 28.6699 197.683 28.4287 198.31 28.091C198.76 27.8338 199.162 27.7212 199.5 27.7534C199.838 27.7855 200.111 27.9142 200.32 28.1232C200.529 28.3322 200.641 28.6056 200.69 28.9111C200.738 29.2166 200.69 29.5382 200.513 29.8598C200.352 30.1814 200.079 30.4547 199.693 30.6959C198.937 31.1622 198.085 31.516 197.104 31.7411C196.123 31.9662 195.223 32.0788 194.387 32.0788Z" fill="#303030"/>
<path d="M206.125 32.0146C205.465 32.0146 204.951 31.8377 204.597 31.4839C204.243 31.1302 204.066 30.6156 204.066 29.9564V17.8002C204.066 17.1409 204.243 16.6264 204.581 16.2887C204.919 15.951 205.401 15.7741 206.028 15.7741C206.655 15.7741 207.138 15.951 207.475 16.2887C207.813 16.6264 207.99 17.1409 207.99 17.8002V19.8262H207.668C207.974 18.5398 208.553 17.559 209.437 16.8997C210.321 16.2405 211.479 15.8385 212.942 15.7098C213.393 15.6616 213.746 15.7741 214.02 16.0475C214.293 16.3209 214.438 16.7228 214.486 17.2856C214.534 17.8163 214.406 18.2504 214.116 18.5881C213.827 18.9258 213.393 19.1187 212.814 19.183L212.106 19.2473C210.804 19.376 209.807 19.778 209.148 20.4533C208.488 21.1287 208.151 22.0774 208.151 23.2994V29.9564C208.151 30.6156 207.974 31.1302 207.636 31.4839C207.298 31.8377 206.784 32.0146 206.125 32.0146Z" fill="#303030"/>
<path d="M220.661 37.8033C220.194 37.8033 219.808 37.6746 219.503 37.4334C219.197 37.1922 219.021 36.8546 218.972 36.4526C218.924 36.0506 218.972 35.6164 219.181 35.1662L221.368 30.3102V31.9824L215.515 18.4434C215.322 17.9771 215.258 17.5268 215.322 17.1249C215.387 16.7229 215.579 16.3852 215.917 16.144C216.255 15.9028 216.705 15.7742 217.284 15.7742C217.782 15.7742 218.168 15.8867 218.474 16.1118C218.779 16.337 219.037 16.755 219.278 17.3821L223.619 28.2198H222.655L227.092 17.35C227.334 16.755 227.607 16.337 227.929 16.1118C228.25 15.8867 228.684 15.7742 229.215 15.7742C229.681 15.7742 230.067 15.9028 230.341 16.144C230.614 16.3852 230.791 16.7068 230.855 17.1088C230.919 17.5108 230.855 17.9449 230.63 18.4112L222.815 36.2596C222.542 36.8546 222.236 37.2726 221.915 37.4817C221.593 37.6907 221.175 37.8033 220.661 37.8033Z" fill="#303030"/>
</g>
<defs>
<linearGradient id="paint0_linear_2569_3789" x1="0.530628" y1="21" x2="41.1799" y2="21" gradientUnits="userSpaceOnUse">
<stop stop-color="#67439B"/>
<stop offset="1" stop-color="#8555C1"/>
</linearGradient>
<linearGradient id="paint1_linear_2569_3789" x1="0.530736" y1="32.8185" x2="41.1801" y2="32.8185" gradientUnits="userSpaceOnUse">
<stop stop-color="#67439B"/>
<stop offset="1" stop-color="#8555C1"/>
</linearGradient>
<linearGradient id="paint2_linear_2569_3789" x1="0.530646" y1="32.8185" x2="41.18" y2="32.8185" gradientUnits="userSpaceOnUse">
<stop stop-color="#67439B"/>
<stop offset="1" stop-color="#8555C1"/>
</linearGradient>
<linearGradient id="paint3_linear_2569_3789" x1="4.18398e-05" y1="32.8185" x2="41.18" y2="32.8185" gradientUnits="userSpaceOnUse">
<stop stop-color="#67439B"/>
<stop offset="1" stop-color="#8555C1"/>
</linearGradient>
<linearGradient id="paint4_linear_2569_3789" x1="7.41662e-05" y1="16.2405" x2="41.18" y2="16.2405" gradientUnits="userSpaceOnUse">
<stop stop-color="#67439B"/>
<stop offset="1" stop-color="#8555C1"/>
</linearGradient>
<clipPath id="clip0_2569_3789">
<rect width="230.871" height="42" fill="white"/>
</clipPath>
</defs>
</svg>
