<svg width="112" height="45" viewBox="0 0 112 45" fill="none" xmlns="http://www.w3.org/2000/svg">
<rect x="0.5" y="0.5" width="111" height="43.8" rx="1.5" stroke="#8796A1"/>
<path d="M36.5 22C36.5 18.9624 34.0376 16.5 31 16.5C27.9624 16.5 25.5 18.9624 25.5 22C25.5 25.0376 27.9624 27.5 31 27.5C34.0376 27.5 36.5 25.0376 36.5 22ZM37.5 22C37.5 25.5899 34.5899 28.5 31 28.5C27.4101 28.5 24.5 25.5899 24.5 22C24.5 18.4101 27.4101 15.5 31 15.5C34.5899 15.5 37.5 18.4101 37.5 22Z" fill="#58707F"/>
<circle cx="31" cy="22" r="4" fill="#58707F"/>
<path d="M53.5 22C53.5 18.9624 51.0376 16.5 48 16.5C44.9624 16.5 42.5 18.9624 42.5 22C42.5 25.0376 44.9624 27.5 48 27.5C51.0376 27.5 53.5 25.0376 53.5 22ZM54.5 22C54.5 25.5899 51.5899 28.5 48 28.5C44.4101 28.5 41.5 25.5899 41.5 22C41.5 18.4101 44.4101 15.5 48 15.5C51.5899 15.5 54.5 18.4101 54.5 22Z" fill="#58707F"/>
<path d="M69.5 22C69.5 18.9624 67.0376 16.5 64 16.5C60.9624 16.5 58.5 18.9624 58.5 22C58.5 25.0376 60.9624 27.5 64 27.5C67.0376 27.5 69.5 25.0376 69.5 22ZM70.5 22C70.5 25.5899 67.5899 28.5 64 28.5C60.4101 28.5 57.5 25.5899 57.5 22C57.5 18.4101 60.4101 15.5 64 15.5C67.5899 15.5 70.5 18.4101 70.5 22Z" fill="#58707F"/>
<path d="M86.5 22C86.5 18.9624 84.0376 16.5 81 16.5C77.9624 16.5 75.5 18.9624 75.5 22C75.5 25.0376 77.9624 27.5 81 27.5C84.0376 27.5 86.5 25.0376 86.5 22ZM87.5 22C87.5 25.5899 84.5899 28.5 81 28.5C77.4101 28.5 74.5 25.5899 74.5 22C74.5 18.4101 77.4101 15.5 81 15.5C84.5899 15.5 87.5 18.4101 87.5 22Z" fill="#58707F"/>
</svg>
