<svg width="112" height="45" viewBox="0 0 112 45" fill="none" xmlns="http://www.w3.org/2000/svg">
<rect x="0.5" y="0.5" width="111" height="43.8" rx="1.5" stroke="#8796A1"/>
<path d="M27.125 26.8597C27.425 27.1597 27.825 27.1597 28.125 26.8597C28.425 26.5597 28.425 26.1597 28.125 25.8597L24.725 22.4597L28.125 19.0597C28.425 18.7597 28.425 18.3597 28.125 18.0597C28.025 17.9597 27.825 17.8597 27.625 17.8597C27.425 17.8597 27.225 17.9597 27.125 18.0597L23.225 21.9597C22.925 22.2597 22.925 22.6597 23.225 22.9597L27.125 26.8597Z" fill="#58707F"/>
<path d="M67.7731 26.0508V27.0898H61.2584V26.1807L64.5192 22.5508C64.9202 22.1042 65.2301 21.7259 65.4489 21.416C65.6722 21.1016 65.8271 20.8213 65.9137 20.5752C66.0048 20.3245 66.0504 20.0693 66.0504 19.8096C66.0504 19.4814 65.9821 19.1852 65.8453 18.9209C65.7132 18.652 65.5172 18.4378 65.2574 18.2783C64.9977 18.1188 64.6832 18.0391 64.3141 18.0391C63.872 18.0391 63.5029 18.1257 63.2067 18.2988C62.915 18.4674 62.6962 18.7044 62.5504 19.0098C62.4046 19.3151 62.3317 19.666 62.3317 20.0625H61.067C61.067 19.502 61.1901 18.9893 61.4362 18.5244C61.6823 18.0596 62.0468 17.6904 62.5299 17.417C63.013 17.139 63.6077 17 64.3141 17C64.943 17 65.4808 17.1117 65.9274 17.335C66.374 17.5537 66.7158 17.8636 66.9528 18.2646C67.1943 18.6611 67.3151 19.126 67.3151 19.6592C67.3151 19.9508 67.2649 20.2471 67.1647 20.5479C67.069 20.8441 66.9345 21.1403 66.7614 21.4365C66.5927 21.7327 66.3945 22.0244 66.1666 22.3115C65.9433 22.5986 65.7041 22.8812 65.4489 23.1592L62.7828 26.0508H67.7731Z" fill="#58707F"/>
<path d="M58.2148 17.1367L54.0654 27.9443H52.9785L57.1348 17.1367H58.2148Z" fill="#58707F"/>
<path d="M48.1644 17.082V27.0898H46.8998V18.6611L44.35 19.5908V18.4492L47.9662 17.082H48.1644Z" fill="#58707F"/>
<path d="M84.9981 18.0847C84.6981 17.7847 84.2981 17.7847 83.9981 18.0847C83.6981 18.3847 83.6981 18.7847 83.9981 19.0847L87.3981 22.4847L83.9981 25.8847C83.6981 26.1847 83.6981 26.5847 83.9981 26.8847C84.0981 26.9847 84.2981 27.0847 84.4981 27.0847C84.6981 27.0847 84.8981 26.9847 84.9981 26.8847L88.8981 22.9847C89.1981 22.6847 89.1981 22.2847 88.8981 21.9847L84.9981 18.0847Z" fill="#58707F"/>
</svg>
