<svg xmlns="http://www.w3.org/2000/svg" width="150" height="80" fill="none" xmlns:v="https://vecta.io/nano"><g clip-path="url(#A)"><path d="M150 3.2v73.7c0 1.7-1.5 3.2-3.4 3.2H3.4C1.5 80 0 78.6 0 76.8V3.2C0 1.4 1.5 0 3.4 0h143.2c1.9 0 3.4 1.4 3.4 3.2z" fill="#fff"/><path d="M146.6 1c1.3 0 2.4 1 2.4 2.2v73.7c0 1.2-1.1 2.2-2.4 2.2H3.4C2.1 79 1 78 1 76.8V3.2C1 2 2.1 1 3.4 1h143.2zm0-1H3.4C1.5 0 0 1.4 0 3.2v73.7C0 78.6 1.5 80 3.4 80h143.2c1.9 0 3.4-1.4 3.4-3.2V3.2c0-1.8-1.5-3.2-3.4-3.2z" fill="#8796a1"/><g fill="#d8dadb"><path d="M51.7 23.2H21.3c-.9 0-1.7.7-1.7 1.7v30.4c0 .9.7 1.7 1.7 1.7h30.4c.9 0 1.7-.7 1.7-1.7V24.8c-.1-.9-.8-1.6-1.7-1.6zm38.5 0H59.8c-.9 0-1.7.7-1.7 1.7v30.4c0 .9.7 1.7 1.7 1.7h30.4c.9 0 1.7-.7 1.7-1.7V24.8c-.1-.9-.8-1.6-1.7-1.6z"/></g><path d="M58.1 19.3v1.2c0 .2.2.4.4.4h33c.2 0 .4-.2.4-.4v-1.3c0-.2-.2-.4-.4-.4h-33c-.2.1-.4.3-.4.5z" fill="#0085ba"/><path d="M128.7 23.2H98.3c-.9 0-1.7.7-1.7 1.7v30.4c0 .9.7 1.7 1.7 1.7h30.4c.9 0 1.7-.7 1.7-1.7V24.8c-.1-.9-.8-1.6-1.7-1.6z" fill="#d8dadb"/><g fill="#8796a1"><path d="M136.3 35.6c-.3-.3-.7-.3-1 0s-.3.7 0 1l3.4 3.4-3.4 3.4c-.3.3-.3.7 0 1 .1.1.3.2.5.2s.4-.1.5-.2l3.9-3.9c.3-.3.3-.7 0-1l-3.9-3.9zm-121.6 0c-.1-.1-.3-.2-.5-.2s-.4.1-.5.2l-3.9 3.9c-.3.3-.3.7 0 1l3.9 3.9c.3.3.7.3 1 0s.3-.7 0-1L11.3 40l3.4-3.4c.3-.3.3-.7 0-1zm72.7.6l-6-6-3-.6c0 1.9-1.5 3.4-3.5 3.4-1.9 0-3.5-1.5-3.5-3.4l-3 .6-6 5.8 4.1 4.1 2-2v12.1h12.8V38.4l1.9 1.9 4.2-4.1zm-38.5 0l-6-6-3-.6c0 1.9-1.5 3.4-3.5 3.4s-3.5-1.5-3.5-3.4l-3 .6-6 5.8 4.1 4.1 2-2v12.1h13V38.4l1.9 1.9 4-4.1zm77 0l-6-6-3-.6c0 1.9-1.5 3.4-3.5 3.4-1.9 0-3.5-1.5-3.5-3.4l-3 .6-6 5.8 4.1 4.1 2-2v12.1h13V38.4l1.9 1.9 4-4.1z"/></g></g><defs><clipPath id="A"><path fill="#fff" d="M0 0h150v80H0z"/></clipPath></defs></svg>