<svg xmlns="http://www.w3.org/2000/svg" width="150" height="176" fill="none" xmlns:v="https://vecta.io/nano"><path d="M91.3 126.7H58.7c-1.6 0-2.7 1.1-2.7 2.7V162c0 1.6 1.1 2.7 2.7 2.7h32.6c1.6 0 2.7-1.1 2.7-2.7v-32.6c0-1.6-1.1-2.7-2.7-2.7zm43.6 0h-32.6c-1.6 0-2.7 1.1-2.7 2.7V162c0 1.6 1.1 2.7 2.7 2.7h32.6c1.6 0 2.7-1.1 2.7-2.7v-32.6c0-1.6-1.1-2.7-2.7-2.7zm-119.8 38h32.6c1.6 0 2.7-1.1 2.7-2.7v-32.6c0-1.6-1.1-2.7-2.7-2.7H15.1c-1.6 0-2.7 1.1-2.7 2.7V162c0 1.6 1.1 2.7 2.7 2.7z" fill="#8796a1"/><rect x="125" y="146.7" width="12" height="12" rx="1" fill="#1b3444"/><path d="M129.375 157.5c-.3 0-.6-.1-.8-.3-.5-.5-.5-1.2 0-1.7l2.9-2.9-2.9-2.9c-.5-.5-.5-1.2 0-1.7.2-.2.5-.3.8-.3s.6.1.8.3l3.8 3.8c.5.5.5 1.2 0 1.7l-3.8 3.8c-.2.1-.5.2-.8.2z" fill="#fff"/><rect x="137" y="144.7" width="12" height="12" rx="1" transform="rotate(180 137 144.7)" fill="#1b3444"/><path d="M132.625 133.9c.3 0 .6.1.8.3.5.5.5 1.2 0 1.7l-2.9 2.9 2.9 2.9c.5.5.5 1.2 0 1.7-.2.2-.5.3-.8.3s-.6-.1-.8-.3l-3.8-3.8c-.5-.5-.5-1.2 0-1.7l3.8-3.8c.2-.1.5-.2.8-.2z" fill="#fff"/><path d="M134.8 11.3H15.2c-1.5 0-2.8 1.2-2.8 2.8v105.2c0 1.5 1.2 2.8 2.8 2.8h119.7c1.5 0 2.8-1.2 2.8-2.8V14.1c-.1-1.5-1.3-2.8-2.9-2.8z" fill="#8796a1"/></svg>